<svg width="16" height="16" viewBox="0 0 16 16" fill="none" xmlns="http://www.w3.org/2000/svg">
<g clip-path="url(#clip0_454_80)">
<path d="M6.5 7.4C6.5 7.4 8 7.3 8 5.5C8 3.7 6.6 3 5 3H0V13H5C5 13 8.3 12.9 8.3 9.9C8.3 9.9 8.5 7.4 6.5 7.4ZM2.3 4.6H4.8H5.2C5.2 4.6 5.9 4.6 5.9 5.6C5.9 6.6 5.5 6.8 5 6.8H2.3V4.6ZM5 11H2.3V8.4H5.2C5.2 8.4 6.2 8.4 6.2 9.8C6.2 10.9 5.4 11 5 11Z" fill="#C3C9D0"/>
<path d="M12.5 5.4C8.7 5.4 8.7 9.2 8.7 9.2C8.7 9.2 8.4 13 12.5 13C12.5 13 15.9 13.2 15.9 10.4H14.2C14.2 10.4 14.3 11.5 12.6 11.5C12.6 11.5 10.9 11.6 10.9 9.8H16C16 9.7 16.5 5.4 12.5 5.4ZM14.1 8.4H10.8C10.8 8.4 11 6.9 12.5 6.9C14.1 6.8 14.1 8.4 14.1 8.4Z" fill="#C3C9D0"/>
<path d="M15 3H10V4H15V3Z" fill="#C3C9D0"/>
</g>
<defs>
<clipPath id="clip0_454_80">
<rect width="16" height="16" fill="white"/>
</clipPath>
</defs>
</svg>
