<svg width="16" height="16" viewBox="0 0 16 16" fill="none" xmlns="http://www.w3.org/2000/svg">
<g clip-path="url(#clip0_454_85)">
<path d="M6.552 6.712C6.32909 6.73034 6.12123 6.83184 5.9697 6.99635C5.81817 7.16086 5.73405 7.37634 5.73405 7.6C5.73405 7.82366 5.81817 8.03915 5.9697 8.20365C6.12123 8.36816 6.32909 8.46966 6.552 8.488C6.66392 8.48337 6.77383 8.45672 6.87543 8.40957C6.97704 8.36242 7.06835 8.29569 7.14414 8.21322C7.21993 8.13074 7.27872 8.03412 7.31713 7.9289C7.35554 7.82368 7.37283 7.71191 7.368 7.6C7.3735 7.48793 7.35668 7.37589 7.31852 7.27038C7.28035 7.16487 7.22161 7.06799 7.14569 6.98537C7.06977 6.90275 6.97819 6.83604 6.87627 6.78911C6.77436 6.74219 6.66413 6.71597 6.552 6.712ZM9.472 6.712C9.29322 6.6969 9.11405 6.73612 8.95793 6.82453C8.80181 6.91295 8.67602 7.04643 8.59702 7.20752C8.51802 7.36861 8.48949 7.54979 8.51517 7.72736C8.54085 7.90492 8.61954 8.07061 8.74093 8.20271C8.86233 8.33482 9.02078 8.4272 9.19555 8.46777C9.37032 8.50833 9.55326 8.49519 9.72044 8.43006C9.88762 8.36493 10.0312 8.25085 10.1325 8.10275C10.2338 7.95464 10.288 7.77942 10.288 7.6C10.2928 7.48809 10.2755 7.37633 10.2371 7.27111C10.1987 7.16588 10.1399 7.06927 10.0641 6.98679C9.98835 6.90431 9.89704 6.83759 9.79543 6.79044C9.69383 6.74328 9.58392 6.71663 9.472 6.712V6.712Z" fill="#C3C9D0"/>
<path d="M13.36 0H2.64C2.42411 0.000524649 2.21044 0.0435677 2.01118 0.126671C1.81192 0.209775 1.63098 0.331312 1.47869 0.484343C1.3264 0.637375 1.20575 0.818903 1.12361 1.01856C1.04148 1.21822 0.999479 1.43211 1 1.648V12.464C0.999479 12.6799 1.04148 12.8938 1.12361 13.0934C1.20575 13.2931 1.3264 13.4746 1.47869 13.6277C1.63098 13.7807 1.81192 13.9022 2.01118 13.9853C2.21044 14.0684 2.42411 14.1115 2.64 14.112H11.712L11.288 12.632L12.312 13.584L13.28 14.484L15 16V1.648C15.0005 1.43211 14.9585 1.21822 14.8764 1.01856C14.7943 0.818903 14.6736 0.637375 14.5213 0.484343C14.369 0.331312 14.1881 0.209775 13.9888 0.126671C13.7896 0.0435677 13.5759 0.000524649 13.36 0V0ZM10.272 10.448C10.272 10.448 9.98401 10.1 9.74401 9.8C10.3239 9.6635 10.8368 9.32627 11.192 8.848C10.9041 9.03957 10.5955 9.19792 10.272 9.32C9.89984 9.47886 9.51061 9.59429 9.11201 9.664C8.42685 9.79024 7.72416 9.78753 7.04 9.656C6.63834 9.57741 6.2447 9.46226 5.864 9.312C5.54362 9.18857 5.23778 9.03029 4.952 8.84C5.29436 9.30824 5.78956 9.64215 6.35201 9.784C6.11201 10.084 5.816 10.448 5.816 10.448C5.34078 10.4608 4.86969 10.3566 4.44421 10.1446C4.01872 9.93255 3.65189 9.61916 3.376 9.232C3.40197 7.61017 3.79587 6.01541 4.528 4.568C5.17229 4.06199 5.95777 3.76848 6.776 3.728L6.856 3.828C6.08764 4.01915 5.37071 4.37693 4.756 4.876C4.756 4.876 4.932 4.776 5.228 4.644C5.80328 4.38289 6.41615 4.21415 7.044 4.144C7.08879 4.13473 7.13429 4.12938 7.18 4.128C7.7143 4.05448 8.25547 4.04508 8.792 4.1C9.63708 4.19651 10.4551 4.45741 11.2 4.868C10.6151 4.39357 9.93611 4.04864 9.208 3.856L9.32 3.728C10.1382 3.76848 10.9237 4.06199 11.568 4.568C12.3001 6.01541 12.694 7.61017 12.72 9.232C12.4419 9.61877 12.0735 9.93173 11.6468 10.1437C11.2202 10.3556 10.7482 10.4601 10.272 10.448Z" fill="#C3C9D0"/>
</g>
<defs>
<clipPath id="clip0_454_85">
<rect width="16" height="16" fill="white"/>
</clipPath>
</defs>
</svg>
