<svg width="100" height="100" viewBox="0 0 100 100" fill="none" xmlns="http://www.w3.org/2000/svg">
<rect width="100" height="100" rx="4" fill="#C3C9D0"/>
<path d="M72 48.1007H60.914V59.3414H72V48.1007Z" fill="#0E1116"/>
<path d="M38.086 48.1007H27V59.3414H38.086V48.1007Z" fill="#0E1116"/>
<path d="M53.6245 25.6637H54.9398C63.4351 25.6637 67.3948 30.1792 69.0494 42.2214L71.68 42.1059L71.3289 23H28.0999L27.6738 42.1059L30.2053 42.2214C30.6437 37.7059 31.1696 35.274 32.3107 32.8422C34.3281 28.326 38.5382 25.6637 43.7127 25.6637H45.5545V67.2318C45.5545 71.6318 45.2916 73.0214 44.2399 74.0637C43.3623 74.874 41.6079 75.2214 39.5899 75.2214H37.5726V78H61.6064V75.2214H59.5767C57.5717 75.2214 55.8049 74.8734 54.9405 74.0637C53.8881 73.0214 53.6252 71.6311 53.6252 67.2318V25.6637" fill="#0E1116"/>
</svg>
