<svg width="100" height="100" viewBox="0 0 100 100" fill="none" xmlns="http://www.w3.org/2000/svg">
<rect width="100" height="100" rx="4" fill="#C3C9D0"/>
<g clip-path="url(#clip0_455_581)">
<path fill-rule="evenodd" clip-rule="evenodd" d="M91.7972 53.8667H89.9145L88.1765 50.88H86.2359V53.8667H84.5848V46.2667H88.6979C90.5807 46.2667 91.4786 46.96 91.4786 48.56C91.4786 49.7333 90.8993 50.48 89.8855 50.6933L91.7972 53.8667ZM88.2634 47.6267H86.2359V49.5467H88.2634C89.2483 49.5467 89.7407 49.36 89.7407 48.5867C89.7407 47.8133 89.2483 47.6267 88.2634 47.6267ZM77.9228 53.2C77.1117 52.5867 76.7062 51.5733 76.7062 50.2133C76.7062 47.52 77.8938 46.2667 80.4428 46.2667H83.2234V47.6H80.5007C79.3131 47.6 78.7048 48.16 78.6179 49.36H83.2234V50.6933H78.6179C78.6179 52.0533 79.1972 52.56 80.5007 52.56H83.2234V53.8933H80.4138C79.429 53.8667 78.7048 53.7867 77.9228 53.2ZM73.9545 53.8667H72.2455V47.6H69.6965V46.2667H76.5324V47.6H73.9545V53.8667ZM69.1752 53.8667L68.451 52.0533H65.0041L64.309 53.8667H62.5421L65.9021 46.2667H67.669L71.029 53.8667H69.1752V53.8667ZM66.7131 47.7867L65.5545 50.72H67.9007L66.7131 47.7867ZM59.1241 53.8667L57.4441 48.1867L55.9669 53.8667H53.9393L51.3034 46.2667H53.0993L54.9241 52.1067L56.4593 46.2667H58.429L60.1959 52.1067L61.9048 46.2667H63.6138L61.1807 53.8667H59.1241ZM45.0469 53.2C44.2359 52.5867 43.8303 51.5733 43.8303 50.2133C43.8303 47.52 45.0179 46.2667 47.5669 46.2667H50.3476V47.6H47.6248C46.4372 47.6 45.829 48.16 45.7421 49.36H50.3186V50.6933H45.7131C45.7131 52.0533 46.2924 52.56 47.5959 52.56H50.3186V53.8933H47.509C46.5531 53.8667 45.8 53.7867 45.0469 53.2V53.2ZM36.7338 53.2C35.9228 52.5867 35.5172 51.5733 35.5172 50.2133C35.5172 47.52 36.7048 46.2667 39.2538 46.2667H42.8455V47.5733H39.2538C37.9214 47.5733 37.371 48.4 37.371 50.1333C37.371 51.8667 37.8924 52.5067 39.2538 52.5067H41.1365V50.72H38.9062V49.3867H42.8455V53.8933H39.2538C38.269 53.8667 37.5159 53.8133 36.7048 53.2H36.7338ZM30.9986 53.8667H27.32V46.2667H30.9407C33.4897 46.2667 34.6772 47.52 34.6772 50.2133C34.6772 51.6 34.2717 52.5867 33.4607 53.2C32.6497 53.8133 31.9545 53.8667 30.9697 53.8667H30.9986V53.8667ZM30.9117 47.5733H28.971V52.5333H30.9117C32.389 52.5333 32.8524 51.92 32.8524 50.0533C32.8524 48.1867 32.389 47.5733 30.9117 47.5733V47.5733ZM24.2786 46.24H26.0166V53.84H24.2786V46.24V46.24ZM21.5269 53.84L19.789 50.8533H17.8193V53.84H16.1683V46.24H20.2814C22.1641 46.24 23.0621 46.9333 23.0621 48.5333C23.0621 49.7067 22.4828 50.4533 21.469 50.6667L23.4386 53.84H21.5269V53.84ZM19.8759 47.6H17.8483V49.52H19.8759C20.8607 49.52 21.3531 49.3333 21.3531 48.56C21.3531 47.7867 20.8607 47.6267 19.8469 47.6267L19.8759 47.6V47.6ZM12.3448 53.84H8V46.24H12.0552C12.9821 46.24 13.6483 46.32 14.0828 46.5867C14.6856 47.009 15.0144 47.684 14.9553 48.3793C14.8974 49.0747 14.4593 49.695 13.7931 50.0267C14.5636 50.2967 15.0477 51.0033 14.9807 51.76C15.0097 53.2267 14.1407 53.8667 12.3448 53.8667V53.84V53.84ZM12.0841 47.6H9.65103V49.36H12.0841C12.8372 49.36 13.1848 49.0933 13.1848 48.48C13.1848 47.8667 12.8372 47.6267 12.0841 47.6267V47.6V47.6ZM12.1131 50.6933H9.65103V52.48H12.1131C12.8662 52.48 13.2138 52.2133 13.2138 51.6C13.2138 50.9867 12.8372 50.72 12.1131 50.72V50.6933V50.6933Z" fill="black"/>
</g>
<defs>
<clipPath id="clip0_455_581">
<rect width="84" height="8" fill="white" transform="translate(8 46)"/>
</clipPath>
</defs>
</svg>
