<svg width="162" height="52" viewBox="0 0 162 52" fill="none" xmlns="http://www.w3.org/2000/svg">
<path fill-rule="evenodd" clip-rule="evenodd" d="M29.3736 0L58.7473 52H31.3319V24.96H27.4154V52H1.7508e-06L29.3736 0Z" fill="#C3C9D0"/>
<path fill-rule="evenodd" clip-rule="evenodd" d="M58.7473 0V35.36L39.1648 0H58.7473Z" fill="#C3C9D0"/>
<path fill-rule="evenodd" clip-rule="evenodd" d="M0 0V35.36L19.5824 0H0Z" fill="#C3C9D0"/>
<path d="M94.4965 20.0768C94.02 20.5901 93.5083 20.9543 92.9612 21.1696C92.4142 21.4013 91.7524 21.5172 90.9759 21.5172C89.9524 21.5172 89.1406 21.3186 88.5406 20.9212C87.9583 20.5073 87.5789 19.8119 87.4024 18.835L86.9259 16.3515C86.6965 15.1429 86.4142 14.2571 86.0789 13.6941C85.7612 13.1147 85.223 12.8249 84.4642 12.8249H82.7436V18.537C82.7436 19.1662 82.7877 19.6215 82.8759 19.903C82.9818 20.1844 83.1671 20.3748 83.4318 20.4742C83.6965 20.5735 84.1289 20.6397 84.7289 20.6728V21.1696C83.7759 21.1199 82.4436 21.095 80.7318 21.095C78.8436 21.095 77.4495 21.1199 76.5495 21.1696V20.6728C77.1318 20.6397 77.5553 20.5735 77.82 20.4742C78.1024 20.3748 78.2877 20.1844 78.3759 19.903C78.4818 19.6215 78.5347 19.1662 78.5347 18.537V6.21875C78.5347 5.58959 78.4818 5.13427 78.3759 4.85281C78.2877 4.57134 78.1024 4.38094 77.82 4.2816C77.5553 4.18226 77.1318 4.11603 76.5495 4.08292V3.58621C77.4495 3.63588 78.7906 3.66072 80.573 3.66072L83.5112 3.63588C83.8642 3.61933 84.27 3.61105 84.7289 3.61105C87.1642 3.61105 88.9906 3.98358 90.2083 4.72863C91.4436 5.47369 92.0612 6.5416 92.0612 7.93238C92.0612 9.10791 91.6024 10.1427 90.6847 11.0368C89.7671 11.9308 88.2495 12.4938 86.1318 12.7256C87.72 12.858 88.9024 13.1809 89.6789 13.6941C90.4553 14.2074 90.9583 14.9773 91.1877 16.0038L91.7965 18.5619C91.9377 19.2241 92.0965 19.6877 92.273 19.9526C92.4671 20.2175 92.7318 20.35 93.0671 20.35C93.2789 20.3334 93.4553 20.2838 93.5965 20.201C93.7553 20.1182 93.9318 19.9775 94.1259 19.7788L94.4965 20.0768ZM84.3847 4.08292C83.9083 4.08292 83.5553 4.14086 83.3259 4.25676C83.1142 4.37266 82.9642 4.57962 82.8759 4.87764C82.7877 5.17567 82.7436 5.6227 82.7436 6.21875V12.3282H83.8818C85.3289 12.3282 86.3171 11.9722 86.8465 11.2603C87.3936 10.5318 87.6671 9.51355 87.6671 8.20556C87.6671 6.84791 87.4112 5.82138 86.8994 5.126C86.3877 4.43061 85.5495 4.08292 84.3847 4.08292Z" fill="#C3C9D0"/>
<path d="M102.395 19.4808C103.842 19.4808 105.007 18.8185 105.889 17.4939L106.365 17.643C106.013 18.7191 105.377 19.638 104.46 20.3997C103.56 21.1447 102.43 21.5172 101.071 21.5172C99.2008 21.5172 97.7096 20.9626 96.5978 19.8533C95.5037 18.7274 94.9566 17.0717 94.9566 14.8862C94.9566 12.6511 95.5478 10.9457 96.7302 9.77018C97.9125 8.57809 99.4831 7.98205 101.442 7.98205C104.76 7.98205 106.418 9.81985 106.418 13.4955H98.9802C98.9625 13.7438 98.9537 14.1329 98.9537 14.6627C98.9537 15.7555 99.1125 16.6661 99.4302 17.3946C99.7655 18.1231 100.189 18.6529 100.701 18.9841C101.23 19.3152 101.795 19.4808 102.395 19.4808ZM101.283 8.50359C100.648 8.50359 100.118 8.87611 99.6949 9.62117C99.289 10.3497 99.0331 11.4838 98.9272 13.0236H103.083C103.118 11.7156 102.977 10.6394 102.66 9.79502C102.36 8.93406 101.901 8.50359 101.283 8.50359Z" fill="#C3C9D0"/>
<path d="M129.078 18.8599C129.078 19.5387 129.202 20.0106 129.449 20.2755C129.714 20.5238 130.155 20.648 130.773 20.648V21.1696C129.008 21.1033 127.843 21.0702 127.278 21.0702C126.784 21.0702 125.69 21.1033 123.996 21.1696V20.648C124.473 20.648 124.799 20.5238 124.976 20.2755C125.17 20.0271 125.267 19.5553 125.267 18.8599V11.1361C125.267 10.4407 125.152 9.92747 124.923 9.59634C124.711 9.24864 124.296 9.0748 123.678 9.0748C123.026 9.0748 122.452 9.33143 121.958 9.84469C121.481 10.358 121.199 10.9871 121.111 11.7322V18.8599C121.111 19.5387 121.217 20.0106 121.428 20.2755C121.658 20.5238 122.064 20.648 122.646 20.648V21.1696C120.952 21.1033 119.84 21.0702 119.311 21.0702C118.817 21.0702 117.723 21.1033 116.028 21.1696V20.648C116.505 20.648 116.831 20.5238 117.008 20.2755C117.202 20.0106 117.299 19.5387 117.299 18.8599V11.1361C117.299 10.4407 117.202 9.92747 117.008 9.59634C116.814 9.24864 116.434 9.0748 115.87 9.0748C115.164 9.0748 114.555 9.35626 114.043 9.9192C113.549 10.4656 113.302 11.1444 113.302 11.9557V18.8599C113.302 19.5387 113.39 20.0106 113.567 20.2755C113.761 20.5238 114.096 20.648 114.573 20.648V21.1696C113.02 21.1033 111.978 21.0702 111.449 21.0702C110.92 21.0702 109.702 21.1033 107.796 21.1696V20.648C108.431 20.648 108.873 20.5238 109.12 20.2755C109.367 20.0106 109.49 19.5387 109.49 18.8599V11.0368C109.49 10.2752 109.367 9.72051 109.12 9.37282C108.873 9.02513 108.431 8.85128 107.796 8.85128V8.32974C108.361 8.37941 108.908 8.40425 109.437 8.40425C111.008 8.40425 112.296 8.28835 113.302 8.05655V10.2917C114.078 8.75194 115.446 7.98205 117.405 7.98205C118.746 7.98205 119.717 8.30491 120.317 8.95062C120.652 9.28176 120.873 9.77846 120.978 10.4407C121.437 9.54667 122.037 8.91751 122.778 8.55326C123.52 8.17245 124.384 7.98205 125.373 7.98205C126.714 7.98205 127.684 8.30491 128.284 8.95062C128.567 9.24864 128.77 9.65429 128.893 10.1675C129.017 10.6808 129.078 11.3514 129.078 12.1792V18.8599Z" fill="#C3C9D0"/>
<path d="M138.589 7.98205C140.618 7.98205 142.206 8.52842 143.353 9.62117C144.5 10.6974 145.074 12.411 145.074 14.7621C145.074 17.1131 144.5 18.8268 143.353 19.903C142.206 20.9792 140.618 21.5172 138.589 21.5172C136.577 21.5172 134.989 20.9792 133.824 19.903C132.677 18.8268 132.103 17.1131 132.103 14.7621C132.103 12.411 132.677 10.6974 133.824 9.62117C134.989 8.52842 136.577 7.98205 138.589 7.98205ZM138.589 8.47875C137.83 8.47875 137.221 9.00029 136.762 10.0434C136.321 11.0699 136.1 12.6428 136.1 14.7621C136.1 16.8813 136.321 18.4542 136.762 19.4808C137.221 20.5073 137.83 21.0205 138.589 21.0205C139.365 21.0205 139.974 20.5156 140.415 19.5056C140.856 18.4791 141.077 16.8979 141.077 14.7621C141.077 12.6262 140.847 11.0451 140.389 10.0185C139.947 8.99201 139.347 8.47875 138.589 8.47875Z" fill="#C3C9D0"/>
<path d="M156.574 7.98205C157.915 7.98205 158.885 8.30491 159.485 8.95062C159.785 9.2652 159.997 9.67084 160.121 10.1675C160.244 10.6643 160.306 11.3348 160.306 12.1792V18.8599C160.306 19.5387 160.429 20.0106 160.676 20.2755C160.941 20.5238 161.382 20.648 162 20.648V21.1696C160.235 21.1033 159.071 21.0702 158.506 21.0702C157.976 21.0702 156.829 21.1033 155.065 21.1696V20.648C155.594 20.648 155.965 20.5238 156.176 20.2755C156.388 20.0106 156.494 19.5387 156.494 18.8599V11.1361C156.494 10.4573 156.371 9.94403 156.124 9.59634C155.894 9.24864 155.471 9.0748 154.853 9.0748C154.129 9.0748 153.512 9.35626 153 9.9192C152.488 10.4656 152.232 11.1444 152.232 11.9557V18.8599C152.232 19.5387 152.338 20.0106 152.55 20.2755C152.762 20.5238 153.132 20.648 153.662 20.648V21.1696C152.038 21.1033 150.944 21.0702 150.379 21.0702C149.85 21.0702 148.632 21.1033 146.726 21.1696V20.648C147.362 20.648 147.803 20.5238 148.05 20.2755C148.297 20.0106 148.421 19.5387 148.421 18.8599V11.0368C148.421 10.2752 148.297 9.72051 148.05 9.37282C147.803 9.02513 147.362 8.85128 146.726 8.85128V8.32974C147.291 8.37941 147.838 8.40425 148.368 8.40425C149.938 8.40425 151.226 8.28835 152.232 8.05655V10.2917C153.026 8.75194 154.474 7.98205 156.574 7.98205Z" fill="#C3C9D0"/>
<path d="M86.6325 45.65C86.6325 46.3391 86.7635 46.8409 87.0256 47.1555C87.2877 47.4701 87.7425 47.6273 88.39 47.6273V48.0992C87.9121 48.0543 87.4342 48.0318 86.9563 48.0318C85.985 48.0318 85.1833 48.1367 84.5512 48.3464V46.3466C84.2737 47.0207 83.8575 47.5375 83.3025 47.897C82.7475 48.2415 82.0691 48.4138 81.2674 48.4138C79.7874 48.4138 78.6234 47.897 77.7755 46.8634C76.943 45.8297 76.5345 44.3168 76.5499 42.3244C76.5499 41.0212 76.7811 39.9127 77.2436 38.9989C77.7216 38.0701 78.3536 37.3735 79.1399 36.9092C79.9416 36.4448 80.8203 36.2126 81.7762 36.2126C82.362 36.2126 82.8939 36.3249 83.3718 36.5496C83.8652 36.7594 84.2583 37.0889 84.5512 37.5383V33.1792C84.5512 32.4901 84.4202 31.9882 84.1581 31.6737C83.896 31.3591 83.4412 31.2018 82.7937 31.2018V30.7299C83.287 30.7749 83.765 30.7973 84.2275 30.7973C85.1987 30.7973 86.0004 30.6925 86.6325 30.4828V45.65ZM81.9381 47.7397C82.5393 47.7397 83.0789 47.515 83.5568 47.0656C84.0348 46.6162 84.3662 45.9795 84.5512 45.1556V38.4596C84.135 37.3061 83.2716 36.7294 81.9612 36.7294C81.0053 36.7294 80.2345 37.2088 79.6487 38.1675C79.0628 39.1112 78.7776 40.4969 78.793 42.3244C78.7776 44.122 79.0397 45.4777 79.5793 46.3915C80.1189 47.2903 80.9051 47.7397 81.9381 47.7397Z" fill="#C3C9D0"/>
<path d="M99.5839 45.4028C99.3064 46.2267 98.7823 46.9383 98.0114 47.5375C97.256 48.1217 96.3387 48.4138 95.2595 48.4138C94.1649 48.4138 93.2168 48.1741 92.4151 47.6948C91.6134 47.2004 90.9967 46.5188 90.5651 45.65C90.1488 44.7662 89.9407 43.7475 89.9407 42.5941C89.9407 41.2908 90.1565 40.1598 90.5882 39.2011C91.0199 38.2424 91.6288 37.5084 92.4151 36.999C93.2014 36.4747 94.1187 36.2126 95.167 36.2126C96.5545 36.2126 97.6183 36.6245 98.3583 37.4484C99.1137 38.2574 99.4914 39.4932 99.4914 41.156H92.2532C92.207 41.5754 92.1838 42.0548 92.1838 42.5941C92.1838 43.5827 92.3457 44.4441 92.6695 45.1781C93.0086 45.9121 93.448 46.4814 93.9876 46.8858C94.5426 47.2753 95.1208 47.4701 95.722 47.4701C96.462 47.4701 97.1172 47.2978 97.6877 46.9532C98.2581 46.6087 98.736 46.032 99.1214 45.2231L99.5839 45.4028ZM95.0745 36.6395C94.3499 36.6395 93.7255 36.9841 93.2014 37.6731C92.6772 38.3622 92.3534 39.3809 92.2301 40.7291H97.2714C97.3022 39.5606 97.1249 38.5869 96.7395 37.808C96.3695 37.029 95.8145 36.6395 95.0745 36.6395Z" fill="#C3C9D0"/>
<path d="M115.797 32.2579C116.491 32.2579 117.069 32.2354 117.531 32.1905V32.6399C116.76 32.8196 116.151 33.4713 115.704 34.5948L110.27 48.2116H109.9L104.257 34.078C103.887 33.1492 103.355 32.6698 102.662 32.6399V32.1905C103.278 32.2354 104.103 32.2579 105.136 32.2579C106.462 32.2579 107.449 32.2354 108.096 32.1905V32.6399C107.51 32.6698 107.086 32.7447 106.824 32.8646C106.578 32.9694 106.454 33.1717 106.454 33.4713C106.454 33.7259 106.547 34.078 106.732 34.5274L110.917 45.3354L114.687 35.8306C114.995 35.0217 115.149 34.4075 115.149 33.9881C115.149 33.5237 114.98 33.1866 114.641 32.9769C114.317 32.7672 113.816 32.6549 113.137 32.6399V32.1905C114.016 32.2354 114.903 32.2579 115.797 32.2579Z" fill="#C3C9D0"/>
<path d="M124.574 36.2126C125.191 36.2126 125.692 36.3849 126.077 36.7294C126.478 37.0739 126.679 37.4934 126.679 37.9877C126.679 38.3772 126.555 38.7143 126.309 38.9989C126.077 39.2685 125.761 39.4033 125.361 39.4033C125.021 39.4033 124.728 39.2985 124.482 39.0888C124.251 38.879 124.135 38.5944 124.135 38.2349C124.135 37.7406 124.397 37.3361 124.921 37.0215C124.813 36.8717 124.651 36.7968 124.436 36.7968C123.834 36.7968 123.287 37.029 122.794 37.4934C122.3 37.9428 121.915 38.497 121.637 39.1562C121.36 39.8153 121.221 40.437 121.221 41.0212V45.7848C121.221 46.4739 121.422 46.9532 121.822 47.2229C122.239 47.4925 122.855 47.6273 123.672 47.6273V48.0992L123.117 48.0767C121.545 48.0318 120.543 48.0093 120.111 48.0093C119.71 48.0093 118.801 48.0393 117.382 48.0992V47.6273C118.03 47.6273 118.485 47.515 118.747 47.2903C119.009 47.0506 119.14 46.6237 119.14 46.0095V38.9764C119.14 38.2873 119.009 37.7855 118.747 37.4709C118.485 37.1563 118.03 36.999 117.382 36.999V36.5272C117.876 36.5721 118.354 36.5946 118.816 36.5946C119.787 36.5946 120.589 36.4897 121.221 36.28V39.0888C121.499 38.3398 121.938 37.6731 122.539 37.0889C123.156 36.5047 123.834 36.2126 124.574 36.2126Z" fill="#C3C9D0"/>
<path d="M130.317 30.9097C130.717 30.9097 131.064 31.052 131.357 31.3366C131.65 31.6212 131.797 31.9583 131.797 32.3478C131.797 32.7372 131.65 33.0743 131.357 33.3589C131.064 33.6435 130.717 33.7858 130.317 33.7858C129.916 33.7858 129.569 33.6435 129.276 33.3589C128.983 33.0743 128.837 32.7372 128.837 32.3478C128.837 31.9583 128.983 31.6212 129.276 31.3366C129.569 31.052 129.916 30.9097 130.317 30.9097ZM131.519 46.0095C131.519 46.6237 131.65 47.0506 131.912 47.2903C132.174 47.515 132.629 47.6273 133.277 47.6273V48.0992C131.858 48.0393 130.926 48.0093 130.478 48.0093C130.031 48.0093 129.099 48.0393 127.68 48.0992V47.6273C128.328 47.6273 128.783 47.515 129.045 47.2903C129.307 47.0506 129.438 46.6237 129.438 46.0095V38.9764C129.438 38.2873 129.307 37.7855 129.045 37.4709C128.783 37.1563 128.328 36.999 127.68 36.999V36.5272C128.174 36.5721 128.652 36.5946 129.114 36.5946C130.085 36.5946 130.887 36.4897 131.519 36.28V46.0095Z" fill="#C3C9D0"/>
<path d="M144.492 45.4028C144.214 46.2267 143.69 46.9383 142.919 47.5375C142.164 48.1217 141.246 48.4138 140.167 48.4138C139.073 48.4138 138.125 48.1741 137.323 47.6948C136.521 47.2004 135.905 46.5188 135.473 45.65C135.057 44.7662 134.848 43.7475 134.848 42.5941C134.848 41.2908 135.064 40.1598 135.496 39.2011C135.928 38.2424 136.537 37.5084 137.323 36.999C138.109 36.4747 139.026 36.2126 140.075 36.2126C141.462 36.2126 142.526 36.6245 143.266 37.4484C144.021 38.2574 144.399 39.4932 144.399 41.156H137.161C137.115 41.5754 137.092 42.0548 137.092 42.5941C137.092 43.5827 137.253 44.4441 137.577 45.1781C137.916 45.9121 138.356 46.4814 138.895 46.8858C139.45 47.2753 140.029 47.4701 140.63 47.4701C141.37 47.4701 142.025 47.2978 142.595 46.9532C143.166 46.6087 143.644 46.032 144.029 45.2231L144.492 45.4028ZM139.982 36.6395C139.258 36.6395 138.633 36.9841 138.109 37.6731C137.585 38.3622 137.261 39.3809 137.138 40.7291H142.179C142.21 39.5606 142.033 38.5869 141.647 37.808C141.277 37.029 140.722 36.6395 139.982 36.6395Z" fill="#C3C9D0"/>
<path d="M150.293 36.2126C150.848 36.2126 151.341 36.295 151.773 36.4598C152.205 36.6245 152.551 36.8193 152.814 37.044C152.983 37.1638 153.122 37.2237 153.23 37.2237C153.507 37.2237 153.677 36.8942 153.739 36.2351H154.27C154.209 36.9691 154.178 38.2424 154.178 40.055H153.646C153.476 39.0663 153.145 38.2499 152.652 37.6057C152.174 36.9616 151.457 36.6395 150.501 36.6395C149.946 36.6395 149.491 36.7968 149.137 37.1114C148.782 37.411 148.605 37.8304 148.605 38.3697C148.605 38.894 148.79 39.3359 149.16 39.6954C149.53 40.04 150.123 40.4594 150.94 40.9538C151.079 41.0287 151.287 41.156 151.565 41.3357C152.274 41.7851 152.844 42.1821 153.276 42.5267C153.708 42.8712 154.055 43.2682 154.317 43.7176C154.594 44.167 154.733 44.6838 154.733 45.268C154.733 46.2567 154.348 47.0281 153.577 47.5824C152.821 48.1367 151.889 48.4138 150.779 48.4138C150.085 48.4138 149.476 48.3089 148.952 48.0992C148.612 47.9344 148.296 47.7322 148.003 47.4925C147.942 47.4326 147.872 47.4026 147.795 47.4026C147.687 47.4026 147.587 47.4775 147.495 47.6273C147.418 47.7771 147.356 47.9869 147.31 48.2565H146.778C146.84 47.4026 146.87 45.9046 146.87 43.7625H147.402C147.572 45.1706 147.88 46.2267 148.327 46.9308C148.774 47.6199 149.537 47.9644 150.617 47.9644C151.156 47.9644 151.634 47.7921 152.05 47.4476C152.467 47.103 152.675 46.5638 152.675 45.8297C152.675 45.2455 152.467 44.7512 152.05 44.3467C151.65 43.9423 150.987 43.4554 150.062 42.8862C149.306 42.4218 148.72 42.0398 148.304 41.7402C147.903 41.4406 147.564 41.0736 147.287 40.6392C147.009 40.2048 146.87 39.6954 146.87 39.1112C146.87 38.1675 147.194 37.4484 147.842 36.9541C148.489 36.4598 149.306 36.2126 150.293 36.2126Z" fill="#C3C9D0"/>
<path d="M158.74 45.5376C159.141 45.5376 159.487 45.6799 159.78 45.9646C160.073 46.2492 160.22 46.5862 160.22 46.9757C160.22 47.3652 160.073 47.7022 159.78 47.9869C159.487 48.2715 159.141 48.4138 158.74 48.4138C158.339 48.4138 157.992 48.2715 157.699 47.9869C157.406 47.7022 157.26 47.3652 157.26 46.9757C157.26 46.5862 157.406 46.2492 157.699 45.9646C157.992 45.6799 158.339 45.5376 158.74 45.5376Z" fill="#C3C9D0"/>
</svg>
